<svg width="24" height="24" viewBox="0 0 24 24" fill="none" xmlns="http://www.w3.org/2000/svg">
    <path d="M16.7322 12.6297L14.7237 12.0545C13.8192 11.7989 12.9952 11.315 12.3307 10.6491C11.6662 9.98311 11.1834 9.15741 10.9284 8.25095L10.3544 6.23807C10.3255 6.16765 10.2764 6.10741 10.2133 6.06502C10.1502 6.02263 10.076 6 10 6C9.92403 6 9.84978 6.02263 9.78667 6.06502C9.72357 6.10741 9.67446 6.16765 9.6456 6.23807L9.07163 8.25095C8.81662 9.15741 8.33377 9.98311 7.66926 10.6491C7.00476 11.315 6.18084 11.7989 5.27634 12.0545L3.26781 12.6297C3.19069 12.6516 3.12281 12.6982 3.07448 12.7623C3.02615 12.8264 3 12.9045 3 12.9848C3 13.0652 3.02615 13.1433 3.07448 13.2074C3.12281 13.2715 3.19069 13.3181 3.26781 13.34L5.27634 13.9152C6.18084 14.1708 7.00476 14.6547 7.66926 15.3206C8.33377 15.9866 8.81662 16.8123 9.07163 17.7187L9.6456 19.7316C9.66749 19.8089 9.71393 19.8769 9.77789 19.9254C9.84185 19.9738 9.91983 20 10 20C10.0802 20 10.1581 19.9738 10.2221 19.9254C10.2861 19.8769 10.3325 19.8089 10.3544 19.7316L10.9284 17.7187C11.1834 16.8123 11.6662 15.9866 12.3307 15.3206C12.9952 14.6547 13.8192 14.1708 14.7237 13.9152L16.7322 13.34C16.8093 13.3181 16.8772 13.2715 16.9255 13.2074C16.9738 13.1433 17 13.0652 17 12.9848C17 12.9045 16.9738 12.8264 16.9255 12.7623C16.8772 12.6982 16.8093 12.6516 16.7322 12.6297Z" fill="currentColor"/>
    <path d="M19.8852 5.84129L19.0244 5.59477C18.6368 5.48524 18.2837 5.27786 17.9989 4.99245C17.7141 4.70705 17.5072 4.35317 17.3979 3.96469L17.1519 3.10203C17.1395 3.07185 17.1185 3.04603 17.0914 3.02787C17.0644 3.0097 17.0326 3 17 3C16.9674 3 16.9356 3.0097 16.9086 3.02787C16.8815 3.04603 16.8605 3.07185 16.8481 3.10203L16.6021 3.96469C16.4928 4.35317 16.2859 4.70705 16.0011 4.99245C15.7163 5.27786 15.3632 5.48524 14.9756 5.59477L14.1148 5.84129C14.0817 5.85069 14.0526 5.87064 14.0319 5.89811C14.0112 5.92558 14 5.95907 14 5.9935C14 6.02794 14.0112 6.06143 14.0319 6.0889C14.0526 6.11637 14.0817 6.13632 14.1148 6.14572L14.9756 6.39224C15.3632 6.50176 15.7163 6.70915 16.0011 6.99455C16.2859 7.27996 16.4928 7.63383 16.6021 8.02231L16.8481 8.88498C16.8575 8.9181 16.8774 8.94725 16.9048 8.96801C16.9322 8.98877 16.9656 9 17 9C17.0344 9 17.0678 8.98877 17.0952 8.96801C17.1226 8.94725 17.1425 8.9181 17.1519 8.88498L17.3979 8.02231C17.5072 7.63383 17.7141 7.27996 17.9989 6.99455C18.2837 6.70915 18.6368 6.50176 19.0244 6.39224L19.8852 6.14572C19.9183 6.13632 19.9474 6.11637 19.9681 6.0889C19.9888 6.06143 20 6.02794 20 5.9935C20 5.95907 19.9888 5.92558 19.9681 5.89811C19.9474 5.87064 19.9183 5.85069 19.8852 5.84129Z" fill="currentColor"/>
</svg>
