<svg width="16" height="16" viewBox="0 0 16 16" fill="none" xmlns="http://www.w3.org/2000/svg">
<path fill-rule="evenodd" clip-rule="evenodd" d="M8.2504 2.67708C5.51374 2.67708 3.29525 4.89558 3.29525 7.63223V8.12182C3.50377 8.04812 3.72816 8.00802 3.96191 8.00802H5.11999C5.85637 8.00802 6.45333 8.60497 6.45333 9.34135V13.2397C6.45333 13.9761 5.85637 14.5731 5.11999 14.5731H4.62858C3.15582 14.5731 1.96191 13.3792 1.96191 11.9064V10.7693V10.008V7.63223C1.96191 4.1592 4.77736 1.34375 8.2504 1.34375C11.7234 1.34375 14.5389 4.1592 14.5389 7.63223V9.98025V10.7693V11.9064C14.5389 13.3792 13.345 14.5731 11.8722 14.5731H11.3808C10.6444 14.5731 10.0475 13.9761 10.0475 13.2397V9.31359C10.0475 8.57721 10.6444 7.98025 11.3808 7.98025H12.5389C12.7726 7.98025 12.997 8.02036 13.2055 8.09406V7.63223C13.2055 4.89558 10.9871 2.67708 8.2504 2.67708ZM3.96191 9.34135C3.59372 9.34135 3.29525 9.63983 3.29525 10.008V10.7693V11.9064C3.29525 12.6428 3.8922 13.2397 4.62858 13.2397H5.11999V9.34135L3.96191 9.34135ZM12.5389 9.31359C12.9071 9.31359 13.2055 9.61206 13.2055 9.98025V10.7693V11.9064C13.2055 12.6428 12.6086 13.2397 11.8722 13.2397H11.3808V9.31359H12.5389Z" fill="#0C0C0C"/>
</svg>
