<svg width="16" height="16" viewBox="0 0 16 16" fill="none" xmlns="http://www.w3.org/2000/svg">
<path fill-rule="evenodd" clip-rule="evenodd" d="M8.25016 2.67708C5.51351 2.67708 3.29501 4.89558 3.29501 7.63223V8.12182C3.50353 8.04812 3.72792 8.00802 3.96168 8.00802H5.11976C5.85614 8.00802 6.45309 8.60497 6.45309 9.34135V13.2397C6.45309 13.9761 5.85614 14.5731 5.11976 14.5731H4.62835C3.15559 14.5731 1.96168 13.3792 1.96168 11.9064V10.7693V10.008V7.63223C1.96168 4.1592 4.77713 1.34375 8.25016 1.34375C11.7232 1.34375 14.5386 4.1592 14.5386 7.63223V9.98025V10.7693V11.9064C14.5386 13.3792 13.3447 14.5731 11.872 14.5731H11.3806C10.6442 14.5731 10.0472 13.9761 10.0472 13.2397V9.31359C10.0472 8.57721 10.6442 7.98025 11.3806 7.98025H12.5386C12.7724 7.98025 12.9968 8.02036 13.2053 8.09406V7.63223C13.2053 4.89558 10.9868 2.67708 8.25016 2.67708ZM3.96168 9.34135C3.59349 9.34135 3.29501 9.63983 3.29501 10.008V10.7693V11.9064C3.29501 12.6428 3.89197 13.2397 4.62835 13.2397H5.11976V9.34135L3.96168 9.34135ZM12.5386 9.31359C12.9068 9.31359 13.2053 9.61206 13.2053 9.98025V10.7693V11.9064C13.2053 12.6428 12.6084 13.2397 11.872 13.2397H11.3806V9.31359H12.5386Z" fill="#0C0C0C"/>
</svg>
