<svg width="67" height="67" viewBox="0 0 67 67" fill="none" xmlns="http://www.w3.org/2000/svg">
    <path d="M26.2246 47.1223V20.0608L47.2724 33.5915L26.2246 47.1223ZM33.7417 66.6667C28.3294 66.6667 23.2553 65.4264 18.5196 62.9457C13.7838 60.4651 9.83735 56.9947 6.68017 52.5346V60.653H0.666504V42.612H18.7075V48.6257H11.3408C13.8966 52.3842 17.1414 55.3284 21.0754 57.4583C25.0093 59.5881 29.2314 60.653 33.7417 60.653C39.5048 60.653 44.7291 58.9993 49.4148 55.6917C54.1004 52.3842 57.3954 47.9993 59.2998 42.5368L65.1631 43.8899C62.908 50.7054 58.8988 56.2054 53.1357 60.3899C47.3727 64.5744 40.908 66.6667 33.7417 66.6667ZM0.816846 30.5847C1.16764 27.227 1.96947 24.0072 3.22231 20.9252C4.47516 17.8432 6.20409 14.9993 8.4091 12.3933L12.6938 16.6781C11.0902 18.7327 9.78723 20.9252 8.78495 23.2555C7.78268 25.5858 7.15625 28.0289 6.90568 30.5847H0.816846ZM16.9034 12.4685L12.6187 8.18377C15.2747 5.97876 18.1312 4.2373 21.1881 2.9594C24.2451 1.68149 27.4273 0.917256 30.7348 0.666687V6.68035C28.179 6.93092 25.7485 7.55735 23.4433 8.55963C21.138 9.5619 18.9581 10.8649 16.9034 12.4685ZM50.6551 12.4685C48.6004 10.8649 46.408 9.5619 44.0777 8.55963C41.7474 7.55735 39.3043 6.93092 36.7485 6.68035V0.666687C40.1061 0.96737 43.326 1.74414 46.408 2.99698C49.49 4.24983 52.3339 5.97876 54.9398 8.18377L50.6551 12.4685ZM60.6528 30.5847C60.4023 28.0289 59.7758 25.5858 58.7736 23.2555C57.7713 20.9252 56.4683 18.7327 54.8647 16.6781L59.1494 12.3933C61.3544 14.9993 63.0834 17.8432 64.3362 20.9252C65.5891 24.0072 66.3658 27.227 66.6665 30.5847H60.6528Z" fill="white"/>
</svg>
