<svg width="245" height="68" viewBox="0 0 74 68" fill="none" xmlns="http://www.w3.org/2000/svg">
    <svg width="67" height="67" viewBox="0 0 67 67" fill="none" xmlns="http://www.w3.org/2000/svg" x="-80">
        <path d="M26.2246 47.1223V20.0608L47.2724 33.5915L26.2246 47.1223ZM33.7417 66.6667C28.3294 66.6667 23.2553 65.4264 18.5196 62.9457C13.7838 60.4651 9.83735 56.9947 6.68017 52.5346V60.653H0.666504V42.612H18.7075V48.6257H11.3408C13.8966 52.3842 17.1414 55.3284 21.0754 57.4583C25.0093 59.5881 29.2314 60.653 33.7417 60.653C39.5048 60.653 44.7291 58.9993 49.4148 55.6917C54.1004 52.3842 57.3954 47.9993 59.2998 42.5368L65.1631 43.8899C62.908 50.7054 58.8988 56.2054 53.1357 60.3899C47.3727 64.5744 40.908 66.6667 33.7417 66.6667ZM0.816846 30.5847C1.16764 27.227 1.96947 24.0072 3.22231 20.9252C4.47516 17.8432 6.20409 14.9993 8.4091 12.3933L12.6938 16.6781C11.0902 18.7327 9.78723 20.9252 8.78495 23.2555C7.78268 25.5858 7.15625 28.0289 6.90568 30.5847H0.816846ZM16.9034 12.4685L12.6187 8.18377C15.2747 5.97876 18.1312 4.2373 21.1881 2.9594C24.2451 1.68149 27.4273 0.917256 30.7348 0.666687V6.68035C28.179 6.93092 25.7485 7.55735 23.4433 8.55963C21.138 9.5619 18.9581 10.8649 16.9034 12.4685ZM50.6551 12.4685C48.6004 10.8649 46.408 9.5619 44.0777 8.55963C41.7474 7.55735 39.3043 6.93092 36.7485 6.68035V0.666687C40.1061 0.96737 43.326 1.74414 46.408 2.99698C49.49 4.24983 52.3339 5.97876 54.9398 8.18377L50.6551 12.4685ZM60.6528 30.5847C60.4023 28.0289 59.7758 25.5858 58.7736 23.2555C57.7713 20.9252 56.4683 18.7327 54.8647 16.6781L59.1494 12.3933C61.3544 14.9993 63.0834 17.8432 64.3362 20.9252C65.5891 24.0072 66.3658 27.227 66.6665 30.5847H60.6528Z" fill="white"/>
    </svg>

    <svg width="67" height="67" viewBox="0 0 67 67" fill="none" x="0">
        <path d="M61.9998 66.3333L51.9165 56.25C50.5276 57.1389 49.0554 57.9028 47.4998 58.5417C45.9443 59.1805 44.3332 59.6944 42.6665 60.0833V53.25C43.4443 52.9722 44.2082 52.6944 44.9582 52.4167C45.7082 52.1389 46.4165 51.8055 47.0832 51.4167L35.9998 40.3333V57.6667L19.3332 41H5.99984V21H16.6665L0.666504 4.99998L5.33317 0.333313L66.6665 61.6667L61.9998 66.3333ZM61.3332 47L56.4998 42.1667C57.4443 40.4444 58.1526 38.6389 58.6248 36.75C59.0971 34.8611 59.3332 32.9166 59.3332 30.9167C59.3332 25.6944 57.8054 21.0278 54.7498 16.9166C51.6943 12.8055 47.6665 10.0278 42.6665 8.58331V1.74998C49.5554 3.30554 55.1665 6.79165 59.4998 12.2083C63.8332 17.625 65.9998 23.8611 65.9998 30.9167C65.9998 33.8611 65.5971 36.6944 64.7915 39.4167C63.986 42.1389 62.8332 44.6667 61.3332 47ZM50.1665 35.8333L42.6665 28.3333V17.5C45.2776 18.7222 47.3193 20.5555 48.7915 23C50.2637 25.4444 50.9998 28.1111 50.9998 31C50.9998 31.8333 50.9304 32.6528 50.7915 33.4583C50.6526 34.2639 50.4443 35.0555 50.1665 35.8333ZM35.9998 21.6666L27.3332 13L35.9998 4.33331V21.6666ZM29.3332 41.5V33.6666L23.3332 27.6666H12.6665V34.3333H22.1665L29.3332 41.5Z" fill="white"/>
    </svg>
    <svg width="74" height="68" viewBox="0 0 74 68" fill="none" x="85">
        <path d="M3.66683 67.3334V62.3334H10.4168C7.13905 58.3334 4.63905 53.9167 2.91683 49.0834C1.19461 44.25 0.333496 39.2222 0.333496 34C0.333496 28.7778 1.19461 23.75 2.91683 18.9167C4.63905 14.0834 7.13905 9.66669 10.4168 5.66669H3.66683V0.666687H20.3335V17.3334H15.3335V7.66669C12.1113 11.3334 9.63905 15.4167 7.91683 19.9167C6.19461 24.4167 5.3335 29.1111 5.3335 34C5.3335 38.8889 6.19461 43.5834 7.91683 48.0834C9.63905 52.5834 12.1113 56.6667 15.3335 60.3334V50.6667H20.3335V67.3334H3.66683ZM51.8335 63.4167C50.5557 63.8611 49.2641 64.0695 47.9585 64.0417C46.6529 64.0139 45.3891 63.6945 44.1668 63.0834L22.3335 52.9167L23.8335 49.5834C24.3891 48.4722 25.1668 47.5695 26.1668 46.875C27.1668 46.1806 28.2779 45.7778 29.5002 45.6667L35.1668 45.25L25.8335 19.6667C25.5002 18.7778 25.5279 17.9306 25.9168 17.125C26.3057 16.3195 26.9446 15.75 27.8335 15.4167C28.7224 15.0834 29.5696 15.1111 30.3752 15.5C31.1807 15.8889 31.7502 16.5278 32.0835 17.4167L44.4168 51.3334L36.0835 51.9167L47.0002 57C47.3891 57.1667 47.8057 57.2639 48.2502 57.2917C48.6946 57.3195 49.1113 57.2778 49.5002 57.1667L62.5835 52.4167C64.3057 51.8056 65.5557 50.6528 66.3335 48.9584C67.1113 47.2639 67.1946 45.5556 66.5835 43.8334L62.0002 31.3334C61.6668 30.4445 61.6946 29.5972 62.0835 28.7917C62.4724 27.9861 63.1113 27.4167 64.0002 27.0834C64.8891 26.75 65.7363 26.7778 66.5418 27.1667C67.3474 27.5556 67.9168 28.1945 68.2502 29.0834L72.8335 41.5834C74.1113 45.0834 73.9863 48.4861 72.4585 51.7917C70.9307 55.0972 68.4168 57.3889 64.9168 58.6667L51.8335 63.4167ZM44.3335 41.3334L39.8335 28.75C39.5002 27.8611 39.5279 27.0139 39.9168 26.2084C40.3057 25.4028 40.9446 24.8334 41.8335 24.5C42.7224 24.1667 43.5696 24.1945 44.3752 24.5834C45.1807 24.9722 45.7502 25.6111 46.0835 26.5L50.6668 39L44.3335 41.3334ZM53.7502 37.9167L50.3335 28.5C50.0002 27.6111 50.0279 26.7639 50.4168 25.9584C50.8057 25.1528 51.4446 24.5834 52.3335 24.25C53.2224 23.9167 54.0696 23.9445 54.8752 24.3334C55.6807 24.7222 56.2502 25.3611 56.5835 26.25L60.0002 35.5834L53.7502 37.9167Z" fill="white"/>
    </svg>
</svg>
