<svg width="154" height="68" viewBox="0 0 74 68" fill="none" xmlns="http://www.w3.org/2000/svg">
    <svg width="67" height="67" viewBox="0 0 67 67" fill="none" xmlns="http://www.w3.org/2000/svg" x="-42">
        <path d="M26.2246 47.1223V20.0608L47.2724 33.5915L26.2246 47.1223ZM33.7417 66.6667C28.3294 66.6667 23.2553 65.4264 18.5196 62.9457C13.7838 60.4651 9.83735 56.9947 6.68017 52.5346V60.653H0.666504V42.612H18.7075V48.6257H11.3408C13.8966 52.3842 17.1414 55.3284 21.0754 57.4583C25.0093 59.5881 29.2314 60.653 33.7417 60.653C39.5048 60.653 44.7291 58.9993 49.4148 55.6917C54.1004 52.3842 57.3954 47.9993 59.2998 42.5368L65.1631 43.8899C62.908 50.7054 58.8988 56.2054 53.1357 60.3899C47.3727 64.5744 40.908 66.6667 33.7417 66.6667ZM0.816846 30.5847C1.16764 27.227 1.96947 24.0072 3.22231 20.9252C4.47516 17.8432 6.20409 14.9993 8.4091 12.3933L12.6938 16.6781C11.0902 18.7327 9.78723 20.9252 8.78495 23.2555C7.78268 25.5858 7.15625 28.0289 6.90568 30.5847H0.816846ZM16.9034 12.4685L12.6187 8.18377C15.2747 5.97876 18.1312 4.2373 21.1881 2.9594C24.2451 1.68149 27.4273 0.917256 30.7348 0.666687V6.68035C28.179 6.93092 25.7485 7.55735 23.4433 8.55963C21.138 9.5619 18.9581 10.8649 16.9034 12.4685ZM50.6551 12.4685C48.6004 10.8649 46.408 9.5619 44.0777 8.55963C41.7474 7.55735 39.3043 6.93092 36.7485 6.68035V0.666687C40.1061 0.96737 43.326 1.74414 46.408 2.99698C49.49 4.24983 52.3339 5.97876 54.9398 8.18377L50.6551 12.4685ZM60.6528 30.5847C60.4023 28.0289 59.7758 25.5858 58.7736 23.2555C57.7713 20.9252 56.4683 18.7327 54.8647 16.6781L59.1494 12.3933C61.3544 14.9993 63.0834 17.8432 64.3362 20.9252C65.5891 24.0072 66.3658 27.227 66.6665 30.5847H60.6528Z" fill="white"/>
    </svg>

    <svg width="67" height="67" viewBox="0 0 67 67" fill="none" x="43">
        <path d="M61.9998 66.3333L51.9165 56.25C50.5276 57.1389 49.0554 57.9028 47.4998 58.5417C45.9443 59.1805 44.3332 59.6944 42.6665 60.0833V53.25C43.4443 52.9722 44.2082 52.6944 44.9582 52.4167C45.7082 52.1389 46.4165 51.8055 47.0832 51.4167L35.9998 40.3333V57.6667L19.3332 41H5.99984V21H16.6665L0.666504 4.99998L5.33317 0.333313L66.6665 61.6667L61.9998 66.3333ZM61.3332 47L56.4998 42.1667C57.4443 40.4444 58.1526 38.6389 58.6248 36.75C59.0971 34.8611 59.3332 32.9166 59.3332 30.9167C59.3332 25.6944 57.8054 21.0278 54.7498 16.9166C51.6943 12.8055 47.6665 10.0278 42.6665 8.58331V1.74998C49.5554 3.30554 55.1665 6.79165 59.4998 12.2083C63.8332 17.625 65.9998 23.8611 65.9998 30.9167C65.9998 33.8611 65.5971 36.6944 64.7915 39.4167C63.986 42.1389 62.8332 44.6667 61.3332 47ZM50.1665 35.8333L42.6665 28.3333V17.5C45.2776 18.7222 47.3193 20.5555 48.7915 23C50.2637 25.4444 50.9998 28.1111 50.9998 31C50.9998 31.8333 50.9304 32.6528 50.7915 33.4583C50.6526 34.2639 50.4443 35.0555 50.1665 35.8333ZM35.9998 21.6666L27.3332 13L35.9998 4.33331V21.6666ZM29.3332 41.5V33.6666L23.3332 27.6666H12.6665V34.3333H22.1665L29.3332 41.5Z" fill="white"/>
    </svg>
</svg>
