<svg width="12" height="7" viewBox="0 0 12 7" fill="none" xmlns="http://www.w3.org/2000/svg">
<path d="M6.47943 6.29699C6.4769 6.2996 6.47435 6.3022 6.47177 6.30478C6.34158 6.43497 6.17094 6.50006 6.0003 6.50004C5.82967 6.50006 5.65903 6.43497 5.52884 6.30478C5.52625 6.3022 5.5237 6.2996 5.52117 6.29698L0.862254 1.63807C0.601905 1.37772 0.601905 0.955612 0.862254 0.695262C1.1226 0.434913 1.54471 0.434912 1.80506 0.695262L6.0003 4.8905L10.1955 0.695262C10.4559 0.434912 10.878 0.434913 11.1384 0.695262C11.3987 0.955612 11.3987 1.37772 11.1384 1.63807L6.47943 6.29699Z" fill="#0C0C0C"/>
</svg>
