<svg class="cnn-logo-dark" width="200" height="94" viewBox="0 0 200 94" xmlns="http://www.w3.org/2000/svg" xmlns:xlink="http://www.w3.org/1999/xlink"><defs><path id="prefix__a" d="M0 .346h199.949v92.268H0z"/><path id="prefix__c" d="M.072 0h169.645v77.861H.072z"/></defs><g fill="none" fill-rule="evenodd"><g transform="translate(0 .386)"><mask id="prefix__b" fill="#fff"><use xlink:href="#prefix__a"/></mask><path d="M188.597.346v74.848c0 2.973-1.865 5.476-4.64 6.231a6.285 6.285 0 0 1-1.64.217c-2.113 0-4.547-1.05-6.308-4.032-.096-.162-7.065-12.146-17.687-30.412-8.58-14.757-17.453-30.015-17.607-30.276-.979-1.66-2.34-2.439-3.646-2.084-1.11.302-1.827 1.315-1.827 2.582v57.774c0 2.973-1.866 5.477-4.642 6.231-2.373.645-5.705-.019-7.946-3.815l-16.135-27.744A236232.22 236232.22 0 0 0 87.36 16.922c-.982-1.663-2.357-2.442-3.68-2.082-.852.231-1.846 1.046-1.846 2.58v56.516c0 3.72-3.276 6.982-7.01 6.982H46.062c-19.132 0-34.697-15.525-34.697-34.61S26.93 11.696 46.063 11.696H61V.346H46.076C20.629.346 0 20.923 0 46.308 0 71.692 20.63 92.27 46.076 92.27h29.039c11.04.007 18.139-6.446 18.124-18.347V47.706s18.524 31.834 19.374 33.275c11.76 19.925 33.98 11.69 33.982-5.462V47.706s18.523 31.834 19.373 33.275c11.76 19.925 33.981 11.69 33.981-5.462V.346h-11.352z" fill="#FFF" mask="url(#prefix__b)"/></g><g transform="translate(15.087 .386)"><mask id="prefix__d" fill="#fff"><use xlink:href="#prefix__c"/></mask><path d="M.072 46.308c0 16.998 13.864 30.827 30.904 30.827h28.761c1.813 0 3.218-1.72 3.218-3.2V17.42c0-2.972 1.865-5.477 4.64-6.23 2.374-.646 5.707.018 7.948 3.814.12.204 9.804 16.858 19.17 32.963 8.223 14.142 15.99 27.499 16.124 27.727.98 1.662 2.357 2.44 3.68 2.08.85-.23 1.845-1.045 1.845-2.58V17.42c0-2.976 1.858-5.481 4.623-6.233 2.359-.64 5.674.026 7.913 3.817.114.193 8.616 14.815 17.618 30.296l17.675 30.392c.982 1.663 2.358 2.443 3.68 2.083.852-.231 1.846-1.046 1.846-2.58V.345h-11.404v44.562s-18.524-31.833-19.375-33.274c-11.76-19.926-33.98-11.691-33.98 5.462v27.812S86.434 13.075 85.584 11.634C73.824-8.292 51.604-.057 51.603 17.096V62.68c.006 1.658-1.244 3.102-3.063 3.106H31.098c-10.784 0-19.526-8.72-19.526-19.478 0-10.758 8.742-19.478 19.526-19.478h14.815V15.48H30.976C13.936 15.48.072 29.31.072 46.308" fill="#FFF" mask="url(#prefix__d)"/></g></g></svg>
