<svg class="cnn-logo" xmlns="http://www.w3.org/2000/svg" viewBox="0 0 1000 464.6231995"  xml:space="preserve"><path fill="#C00" d="M75.814 232.456c0 85.224 69.334 154.558 154.558 154.558h144.366c9.066 0 16.098-8.618 16.098-16.04V87.745c0-17.892 14.557-32.453 32.444-32.453 11.476 0 22.17 6.084 27.902 15.886.718 1.234 44.427 76.59 90.698 156.377 44.21 76.24 89.934 155.077 90.652 156.315 2.314 3.945 6.836 6.491 11.53 6.491 7.434 0 13.485-6.047 13.485-13.485V87.746c0-17.893 14.549-32.454 32.445-32.454 11.475 0 22.17 6.084 27.897 15.886.727 1.234 44.398 76.59 90.64 156.381 44.17 76.224 89.85 155.04 90.586 156.31 2.313 3.946 6.836 6.492 11.53 6.492 7.434 0 13.476-6.047 13.476-13.485V2.023h-56.903v223.131S764.115 47.691 760.775 41.984C745.725 16.257 717.183 0 686.807 0c-47.584 0-86.172 38.604-86.172 86.184v138.97s-103.1-177.463-106.442-183.17C479.14 16.257 450.6 0 420.223 0c-47.583 0-86.17 38.604-86.17 86.184V314.54c.029 8.31-6.218 15.554-15.313 15.57h-87.758c-53.93 0-97.65-43.72-97.65-97.654s43.72-97.655 97.65-97.655h73.508V77.898h-74.118c-85.224 0-154.558 69.334-154.558 154.558"/><path fill="#C00" d="M943.093 2.02v374.858c0 17.896-14.55 32.453-32.445 32.453-11.476 0-22.17-6.084-27.902-15.882-.718-1.233-44.398-76.593-90.631-156.38-44.178-76.22-89.847-155.045-90.595-156.311-2.305-3.946-6.836-6.496-11.529-6.496-7.434 0-13.477 6.047-13.477 13.481v289.135c0 17.896-14.557 32.453-32.45 32.453-11.475 0-22.16-6.084-27.9-15.882-.719-1.233-44.427-76.59-90.699-156.38-44.215-76.237-89.933-155.074-90.656-156.311-2.313-3.946-6.836-6.496-11.53-6.496-7.434 0-13.477 6.047-13.477 13.481v283.233c0 18.648-16.384 35.008-35.061 35.008H230.375c-95.682 0-173.53-77.84-173.53-173.53 0-95.682 77.848-173.526 173.53-173.526h74.114V2.021h-74.048C103.174 2.02 0 105.187 0 232.454c0 127.271 103.174 230.442 230.441 230.442h145.75c55.212.029 90.718-32.32 90.643-91.99V239.469s103.84 178.725 106.447 183.173c15.052 25.725 43.593 41.981 73.97 41.981 47.587 0 86.166-38.604 86.166-86.18V239.47S836.521 416.936 839.86 422.642c15.056 25.725 43.596 41.981 73.973 41.981 47.584 0 86.167-38.604 86.167-86.18V2.022h-56.907z"/><path fill="#FFF" d="M56.847 232.456c0 95.686 77.844 173.53 173.526 173.53h144.365c18.677 0 35.066-16.36 35.066-35.012V87.745c0-7.434 6.043-13.481 13.477-13.481 4.693 0 9.216 2.546 11.53 6.491.718 1.242 46.44 80.078 90.656 156.315 46.271 79.788 89.975 155.144 90.698 156.381 5.736 9.798 16.422 15.878 27.897 15.878 17.897 0 32.454-14.557 32.454-32.453V87.746c0-7.435 6.043-13.482 13.477-13.482 4.693 0 9.22 2.546 11.53 6.491.743 1.271 46.416 80.091 90.593 156.31a912010.963 912010.963 0 0 0 90.632 156.386c5.731 9.798 16.422 15.878 27.897 15.878 17.896 0 32.45-14.557 32.45-32.453V2.023h-18.973v374.853c0 7.438-6.043 13.485-13.477 13.485-4.693 0-9.216-2.546-11.53-6.491-.738-1.271-46.416-80.087-90.585-156.31-46.242-79.793-89.913-155.148-90.64-156.382-5.731-9.802-16.422-15.886-27.897-15.886-17.896 0-32.45 14.561-32.45 32.453v289.13c0 7.44-6.046 13.486-13.48 13.486-4.694 0-9.217-2.546-11.53-6.491l-90.657-156.315a856792.202 856792.202 0 0 0-90.698-156.377c-5.731-9.802-16.421-15.886-27.897-15.886-17.892 0-32.445 14.561-32.445 32.453v283.23c0 7.42-7.031 16.039-16.098 16.039H230.373c-85.225 0-154.558-69.334-154.558-154.558 0-85.224 69.333-154.558 154.558-154.558h74.114V58.926h-74.114c-95.682 0-173.526 77.844-173.526 173.53"/></svg>
