<svg width="32" height="32" xmlns="http://www.w3.org/2000/svg"><path d="M16 32C7.163 32 0 24.837 0 16S7.163 0 16 0s16 7.163 16 16c-.01 8.833-7.167 15.99-16 16zm0-29.453C8.57 2.547 2.547 8.57 2.547 16S8.57 29.453 16 29.453 29.453 23.43 29.453 16C29.444 8.574 23.426 2.556 16 2.547zm0 22.473c-4.16 0-7.844-3.125-8.957-7.598a1.274 1.274 0 011.236-1.583h.512c.228 0 .45.061.647.177 1.592.94 3.98 1.479 6.56 1.479 2.581 0 4.968-.54 6.561-1.48.196-.115.42-.176.647-.176h.515a1.274 1.274 0 011.236 1.581c-1.113 4.475-4.797 7.6-8.957 7.6zm-5.445-5.756c1.25 1.972 3.26 3.216 5.445 3.216 2.184 0 4.195-1.245 5.445-3.216-1.766.533-3.6.798-5.445.786a18.426 18.426 0 01-5.445-.786zm.68-7.306a.65.65 0 011.235 0 1.274 1.274 0 102.427-.777 3.197 3.197 0 00-6.088 0 1.274 1.274 0 002.426.777zm11.54.824a1.274 1.274 0 00.825-1.601 3.197 3.197 0 00-6.088 0 1.274 1.274 0 002.427.777.65.65 0 011.235 0 1.274 1.274 0 001.602.824z"/></svg>
