<svg width="32" height="32" xmlns="http://www.w3.org/2000/svg"><path d="M16 32C7.163 32 0 24.837 0 16S7.163 0 16 0s16 7.163 16 16c-.01 8.833-7.167 15.99-16 16zm0-29.453C8.57 2.547 2.547 8.57 2.547 16S8.57 29.453 16 29.453 29.453 23.43 29.453 16C29.444 8.574 23.426 2.556 16 2.547zm4.556 7.201a1.874 1.874 0 100 3.748 1.874 1.874 0 000-3.748zm-8.703 0a1.874 1.874 0 100 3.748 1.874 1.874 0 000-3.748zm-1.346 12.913c1.274-2.057 3.321-3.284 5.488-3.284 2.167 0 4.224 1.227 5.498 3.284a1.274 1.274 0 002.168-1.337c-1.737-2.813-4.598-4.495-7.656-4.495-3.059 0-5.92 1.68-7.656 4.495a1.274 1.274 0 102.158 1.337z"/></svg>
