<svg width="32" height="32" xmlns="http://www.w3.org/2000/svg"><path d="M16 32C7.163 32 0 24.837 0 16S7.163 0 16 0s16 7.163 16 16c-.01 8.833-7.167 15.99-16 16zm0-29.453C8.57 2.547 2.547 8.57 2.547 16S8.57 29.453 16 29.453 29.453 23.43 29.453 16C29.444 8.574 23.426 2.556 16 2.547zm4.556 7.201a1.874 1.874 0 100 3.748 1.874 1.874 0 000-3.748zm-8.703 0a1.874 1.874 0 100 3.748 1.874 1.874 0 000-3.748zm11.99 11.805a1.274 1.274 0 00-.128-1.797c-1.891-1.642-4.646-2.584-7.556-2.584s-5.664.942-7.562 2.584a1.274 1.274 0 101.67 1.924c1.433-1.245 3.582-1.96 5.89-1.96 2.31 0 4.458.715 5.891 1.96a1.274 1.274 0 001.798-.127h-.004z"/></svg>
