<svg width="32" height="32" xmlns="http://www.w3.org/2000/svg"><path d="M16 32C7.163 32 0 24.837 0 16S7.163 0 16 0s16 7.163 16 16c-.01 8.833-7.167 15.99-16 16zm0-29.453C8.57 2.547 2.547 8.57 2.547 16S8.57 29.453 16 29.453 29.453 23.43 29.453 16C29.444 8.574 23.426 2.556 16 2.547zm4.556 7.201a1.874 1.874 0 100 3.748 1.874 1.874 0 000-3.748zm-8.703 0a1.874 1.874 0 100 3.748 1.874 1.874 0 000-3.748zm12.301 9.813c0-.703-.57-1.273-1.273-1.273H9.438a1.274 1.274 0 000 2.547H22.88c.703 0 1.273-.57 1.273-1.274z"/></svg>
