<svg width="32" height="32" xmlns="http://www.w3.org/2000/svg"><path d="M16 32C7.163 32 0 24.837 0 16S7.163 0 16 0s16 7.163 16 16c-.01 8.833-7.167 15.99-16 16zm0-29.453C8.57 2.547 2.547 8.57 2.547 16S8.57 29.453 16 29.453 29.453 23.43 29.453 16C29.444 8.574 23.426 2.556 16 2.547zm7.88 16.693a1.275 1.275 0 10-1.993-1.592 7.236 7.236 0 01-11.45 0 1.275 1.275 0 00-1.993 1.592 9.783 9.783 0 0015.443 0h-.006zm-12.645-7.29a.65.65 0 011.235 0 1.274 1.274 0 102.427-.777 3.197 3.197 0 00-6.088 0 1.274 1.274 0 002.426.777zm11.54.825a1.274 1.274 0 00.825-1.602 3.197 3.197 0 00-6.088 0 1.274 1.274 0 102.427.777.65.65 0 011.235 0 1.274 1.274 0 001.602.825z"/></svg>
