<svg width="16" height="16" viewBox="0 0 16 16" fill="none" xmlns="http://www.w3.org/2000/svg">
<path fill-rule="evenodd" clip-rule="evenodd" d="M5.29974 5H3.33301C2.96482 5 2.66634 5.29848 2.66634 5.66667V12.0019C2.66634 12.3701 2.96482 12.6686 3.33301 12.6686H12.6663C13.0345 12.6686 13.333 12.3701 13.333 12.0019V5.66667C13.333 5.29848 13.0345 5 12.6663 5H10.7611L9.57946 3.57455C9.45281 3.42175 9.26467 3.33333 9.06621 3.33333H6.95349C6.75097 3.33333 6.55943 3.42539 6.43291 3.58354L5.29974 5ZM4.65891 3.66667H3.33301C2.22844 3.66667 1.33301 4.5621 1.33301 5.66667V12.0019C1.33301 13.1065 2.22844 14.0019 3.33301 14.0019H12.6663C13.7709 14.0019 14.6663 13.1065 14.6663 12.0019V5.66667C14.6663 4.5621 13.7709 3.66667 12.6663 3.66667H11.3877L10.606 2.72364C10.226 2.26526 9.66159 2 9.06621 2H6.95349C6.34592 2 5.7713 2.27618 5.39175 2.75061L4.65891 3.66667Z" fill="#0C0C0C"/>
<path fill-rule="evenodd" clip-rule="evenodd" d="M7.99969 6.99836C7.07831 6.99836 6.33138 7.74529 6.33138 8.66667C6.33138 9.58805 7.07831 10.335 7.99969 10.335C8.92107 10.335 9.66799 9.58805 9.66799 8.66667C9.66799 7.74529 8.92107 6.99836 7.99969 6.99836ZM4.99805 8.66667C4.99805 7.00891 6.34193 5.66503 7.99969 5.66503C9.65745 5.66503 11.0013 7.00891 11.0013 8.66667C11.0013 10.3244 9.65745 11.6683 7.99969 11.6683C6.34193 11.6683 4.99805 10.3244 4.99805 8.66667Z" fill="#0C0C0C"/>
</svg>
