<svg width="16" height="16" viewBox="0 0 16 16" fill="none" xmlns="http://www.w3.org/2000/svg">
<path fill-rule="evenodd" clip-rule="evenodd" d="M5.29974 4.99902H3.33301C2.96482 4.99902 2.66634 5.2975 2.66634 5.66569V12.001C2.66634 12.3691 2.96482 12.6676 3.33301 12.6676H12.6663C13.0345 12.6676 13.333 12.3691 13.333 12.001V5.66569C13.333 5.2975 13.0345 4.99902 12.6663 4.99902H10.7611L9.57946 3.57357C9.45281 3.42078 9.26467 3.33236 9.06621 3.33236H6.95349C6.75097 3.33236 6.55943 3.42442 6.43291 3.58256L5.29974 4.99902ZM4.65891 3.66569H3.33301C2.22844 3.66569 1.33301 4.56112 1.33301 5.66569V12.001C1.33301 13.1055 2.22844 14.001 3.33301 14.001H12.6663C13.7709 14.001 14.6663 13.1055 14.6663 12.001V5.66569C14.6663 4.56112 13.7709 3.66569 12.6663 3.66569H11.3877L10.606 2.72266C10.226 2.26429 9.66159 1.99902 9.06621 1.99902H6.95349C6.34592 1.99902 5.7713 2.2752 5.39175 2.74963L4.65891 3.66569Z" fill="white"/>
<path fill-rule="evenodd" clip-rule="evenodd" d="M7.99969 6.99738C7.07831 6.99738 6.33138 7.74431 6.33138 8.66569C6.33138 9.58707 7.07831 10.334 7.99969 10.334C8.92107 10.334 9.66799 9.58707 9.66799 8.66569C9.66799 7.74431 8.92107 6.99738 7.99969 6.99738ZM4.99805 8.66569C4.99805 7.00793 6.34193 5.66405 7.99969 5.66405C9.65745 5.66405 11.0013 7.00793 11.0013 8.66569C11.0013 10.3235 9.65745 11.6673 7.99969 11.6673C6.34193 11.6673 4.99805 10.3235 4.99805 8.66569Z" fill="white"/>
</svg>
