<svg width="32" height="32" viewBox="0 0 32 32" fill="none" xmlns="http://www.w3.org/2000/svg">
<path d="M15.9998 9.33329C15.2635 9.33329 14.6665 9.93025 14.6665 10.6666V17.3333C14.6665 18.0697 15.2635 18.6666 15.9998 18.6666C16.7362 18.6666 17.3332 18.0697 17.3332 17.3333V10.6666C17.3332 9.93025 16.7362 9.33329 15.9998 9.33329Z" fill="#0C0C0C"/>
<path d="M17.3332 21.3333C17.3332 22.0697 16.7362 22.6666 15.9998 22.6666C15.2635 22.6666 14.6665 22.0697 14.6665 21.3333C14.6665 20.5969 15.2635 20 15.9998 20C16.7362 20 17.3332 20.5969 17.3332 21.3333Z" fill="#0C0C0C"/>
<path fill-rule="evenodd" clip-rule="evenodd" d="M29.3332 16C29.3332 23.3638 23.3636 29.3333 15.9998 29.3333C8.63604 29.3333 2.6665 23.3638 2.6665 16C2.6665 8.63616 8.63604 2.66663 15.9998 2.66663C23.3636 2.66663 29.3332 8.63616 29.3332 16ZM26.6665 16C26.6665 21.891 21.8909 26.6666 15.9998 26.6666C10.1088 26.6666 5.33317 21.891 5.33317 16C5.33317 10.1089 10.1088 5.33329 15.9998 5.33329C21.8909 5.33329 26.6665 10.1089 26.6665 16Z" fill="#0C0C0C"/>
</svg>
