<?xml version="1.0" encoding="UTF-8"?>
<svg width="259px" height="69px" viewBox="0 0 259 69" version="1.1" xmlns="http://www.w3.org/2000/svg" xmlns:xlink="http://www.w3.org/1999/xlink">
    <!-- Generator: sketchtool 52.2 (67145) - http://www.bohemiancoding.com/sketch -->
    <title>50EA728E-BDDF-4D94-9DE8-849CDCC691EB</title>
    <desc>Created with sketchtool.</desc>
    <g id="Login" stroke="none" stroke-width="1" fill="none" fill-rule="evenodd">
        <g transform="translate(-292.000000, -576.000000)" id="logo_color">
            <g transform="translate(292.000000, 576.000000)">
                <path d="M92.9657373,52.5750526 C90.8908009,51.7800765 89.0919465,50.365895 87.7981147,48.5124915 C86.5683618,46.6177603 85.941354,44.3745382 86.0043177,42.0948918 L94.1693472,42.0948918 C94.1693472,43.8216003 94.7440439,45.1246256 95.8934372,46.0039678 C97.0428304,46.8833101 98.6832718,47.3229812 100.814761,47.3229812 C102.881191,47.3229812 104.414748,46.932873 105.415432,46.1526566 C106.366989,45.472619 106.929403,44.349401 106.916459,43.154899 C106.970874,42.1378075 106.59638,41.1461394 105.889441,40.4353332 C105.201664,39.7766259 104.00425,39.2602122 102.2972,38.886092 L94.7688286,37.2121442 C91.881404,36.5726225 89.7406203,35.4038967 88.3464775,33.7059668 C86.9523348,32.0080369 86.2537143,29.8480525 86.2506162,27.2260138 C86.1933834,25.0219206 86.8472475,22.86066 88.1094733,21.0818097 C89.3980405,19.3461322 91.1389224,18.0251512 93.1283873,17.2734584 C95.4169366,16.3954826 97.843734,15.9644708 100.284987,16.0024091 C102.636078,15.9639849 104.972948,16.3855034 107.172052,17.2446799 C109.083474,17.9801715 110.755315,19.2568728 111.995786,20.9283245 C113.19163,22.6020497 113.814474,24.638586 113.766348,26.7175941 L105.638495,26.7175941 C105.328686,23.9420702 103.393925,22.5543083 99.8342141,22.5543083 C98.8361316,22.5338202 97.8431463,22.7062605 96.9065142,23.062728 C96.1553366,23.3384896 95.4916049,23.8211771 94.9872443,24.458484 C94.0327763,25.8023007 94.1140102,27.6508426 95.1824243,28.8999617 C95.8696247,29.5703411 96.7355396,30.0130291 97.6686456,30.171011 L106.326272,32.0895759 C109.213697,32.7674688 111.382364,33.9697695 112.832272,35.6964779 C114.282181,37.4231863 115.004037,39.6407276 114.99784,42.3491017 C115.040886,44.5303376 114.43953,46.6734121 113.273751,48.4933058 C112.064992,50.3049474 110.37332,51.7160828 108.403545,52.555867 C106.066491,53.5569137 103.553699,54.0468706 101.023883,53.9947907 C98.2746961,54.0561933 95.5395037,53.5742888 92.9657373,52.5750526 Z" id="Path" fill="#211B19"></path>
                <path d="M138,46.7987847 L138,52.7958047 C136.644386,52.9366661 135.281774,53.002879 133.91859,52.9941313 C131.902995,53.0482396 129.895176,52.727789 128.001268,52.0497187 C126.482103,51.473437 125.223903,50.3828559 124.45473,48.9756557 C123.641982,47.5558888 123.235607,45.6135469 123.235607,43.14863 L123.235607,31.4001374 L119,31.4001374 L119,25.3983953 L123.384986,25.3983953 L123.384986,19 L131.292417,19 L131.292417,25.3983953 L137.773523,25.3983953 L137.773523,31.3954153 L131.31651,31.3954153 L131.31651,42.9455813 C131.31651,44.3118315 131.613661,45.2955946 132.207963,45.8968707 C132.802266,46.4981467 133.746724,46.7987847 135.041339,46.7987847 L138,46.7987847 Z" id="Path" fill="#211B19"></path>
                <path d="M169.991982,41.1273734 L150.281119,41.1273734 C150.348294,43.2978589 150.887287,44.9669654 151.898101,46.134693 C152.908914,47.3024207 154.356361,47.8927539 156.24044,47.9056927 C157.309975,47.9366487 158.366323,47.6607642 159.287275,47.1099559 C160.232509,46.4437256 160.940735,45.4876846 161.307303,44.3831016 L169.588936,44.3831016 C169.264913,46.3000586 168.45113,48.0981118 167.228239,49.5990595 C165.99929,51.0749246 164.416697,52.2075436 162.631596,52.8887521 C160.638965,53.6482204 158.523264,54.0234493 156.393982,53.9950203 C153.722564,54.0629611 151.078793,53.4346972 148.716917,52.1706481 C146.577025,50.9802409 144.842693,49.1638554 143.74122,46.9595422 C142.539007,44.5021033 141.943051,41.7868523 142.004284,39.0458423 C141.948361,36.3040156 142.577115,33.5922043 143.832385,31.1612547 C144.979892,28.9589593 146.724135,27.132854 148.860862,25.8967763 C151.040864,24.6355363 153.513044,23.982503 156.024523,24.0044753 C158.616062,23.9397527 161.177452,24.5780773 163.442486,25.8531078 C165.529829,27.0736938 167.216634,28.8874238 168.293431,31.0690657 C169.465002,33.482547 170.049017,36.1442888 169.99678,38.8323519 L169.991982,41.1273734 Z M161.86389,36.13461 C161.792438,34.4898881 161.194669,32.9131247 160.160541,31.6416081 C159.095308,30.5169681 157.622101,29.8810069 156.082101,29.8810069 C154.542101,29.8810069 153.068894,30.5169681 152.003661,31.6416081 C150.962005,32.9102504 150.357326,34.4874702 150.281119,36.13461 L161.86389,36.13461 Z" id="Shape" fill="#211B19" fill-rule="nonzero"></path>
                <polygon id="Path" fill="#211B19" points="177 17 185 17 185 53 177 53"></polygon>
                <polygon id="Path" fill="#211B19" points="193 17 201 17 201 53 193 53"></polygon>
                <path d="M212.613818,52.8870366 C211.192419,52.2464257 209.989802,51.1900125 209.158554,49.8518333 C207.292952,46.5843341 207.710863,42.4632833 210.192751,39.6535502 C211.657465,38.1124763 213.953031,37.1412112 217.07945,36.739755 L222.631702,35.9675993 C223.551443,35.9003013 224.438258,35.5907195 225.205278,35.0691791 C225.812134,34.6062094 226.115561,33.8437663 226.115561,32.7818499 C226.144214,31.8837849 225.737997,31.0287011 225.02894,30.4945206 C224.304526,29.9279494 223.236969,29.6446637 221.826268,29.6446637 C220.638275,29.5731925 219.461769,29.9157163 218.490151,30.6159288 C217.692846,31.2484316 217.212638,32.2092807 217.179533,33.2383444 L209.120427,33.2383444 C209.185773,31.4524793 209.804777,29.7336397 210.888569,28.3285996 C212.049684,26.879382 213.57494,25.7783496 215.301776,25.1428502 C217.371501,24.3586078 219.565848,23.9716728 221.773843,24.0016137 C224.633372,24.0016137 226.9623,24.4046887 228.760626,25.2108387 C230.465824,25.9301151 231.873772,27.2292096 232.744903,28.887077 C233.602762,30.5317525 234.031691,32.6733919 234.031691,35.3119953 L234.031691,45.3063128 C234.00131,45.8466111 234.171431,46.3787948 234.508279,46.7972047 C234.812688,47.1377385 235.247902,47.3257711 235.699749,47.3119752 L236,47.3119752 L236,53.3775255 C234.945344,53.5102519 233.883821,53.5783629 232.821157,53.5814911 C231.07049,53.5814911 229.691561,53.1962227 228.684372,52.4256857 C227.743162,51.7590364 227.077614,50.7607989 226.816146,49.623586 C225.953895,51.0199231 224.732451,52.1486514 223.284628,52.8870366 C221.710423,53.6532989 219.98175,54.0325408 218.237559,53.9942788 C216.305817,54.0518909 214.385449,53.6737953 212.613818,52.8870366 Z M226.110795,42.2711095 L226.110795,39.3573143 C225.897915,39.6731914 225.611311,39.9301892 225.276766,40.1051884 C224.87872,40.3322527 224.442116,40.480549 223.989978,40.5422577 L220.005701,41.2609938 C217.514733,41.6948256 216.26925,42.9396636 216.26925,44.995508 C216.21137,45.988254 216.60089,46.9537166 217.327275,47.6179237 C218.126602,48.2683309 219.131847,48.5982557 220.153443,48.5454818 C224.125011,48.5454818 226.110795,46.4540244 226.110795,42.2711095 Z" id="Shape" fill="#211B19" fill-rule="nonzero"></path>
                <path d="M242,24.914962 L249.116941,24.914962 L249.116941,30.4525841 C249.531893,29.2201454 250.176318,28.0811006 251.014792,27.098063 C251.820045,26.1499265 252.802306,25.3748837 253.90427,24.8181504 C254.957568,24.280694 256.118987,24.0006251 257.296679,24.0000926 C257.613744,23.9985478 257.930617,24.0163282 258.245604,24.053339 C258.495728,24.0871969 258.74769,24.1049808 259,24.1065854 L259,32.1951925 L256.490092,32.1951925 C254.764342,32.1367955 253.088863,32.7933021 251.845102,34.0152501 C250.620988,35.2286218 250.010513,37.1325828 250.013676,39.727133 L250.013676,53 L242,53 L242,24.914962 Z" id="Path" fill="#211B19"></path>
                <path d="M47.4817904,27 L1,69 L46.3427857,69 C58.88129,68.847012 69,59.5003984 69,47.9641434 C68.9905477,36.8151394 59.4862385,27.6884462 47.4817904,27 Z" id="Path" fill="#1976D2"></path>
                <path d="M21.5070207,42 L68,0 L22.6603642,0 C10.11539,0.162549801 0,9.50916335 0,21.0358566 C0,32.1848606 9.50563047,41.3067729 21.5070207,42 Z" id="Path" fill="#37D9B4"></path>
            </g>
        </g>
    </g>
</svg>