<svg class="icon-system-check-default" width="20" height="20" viewbox="0 0 20 20" xmlns="http://www.w3.org/2000/svg"><path fill-rule="evenodd" clip-rule="evenodd" d="M16.202 5.722a.814.814 0 0 0-1.152 0l-3.088 3.09c-.023-.024-1.152 1.15-1.152 1.15l-2.934 2.935-3.04-3.039a.811.811 0 1 0-1.147 1.148l.927.927 2.694 2.921a.702.702 0 0 0 .502.22h.015a.706.706 0 0 0 .497-.199l7.29-7.413.588-.588a.814.814 0 0 0 0-1.152ZM10 0C4.477 0 0 4.477 0 10s4.477 10 10 10 10-4.477 10-10S15.523 0 10 0Zm0 1.333c4.779 0 8.667 3.888 8.667 8.667S14.779 18.667 10 18.667 1.333 14.779 1.333 10 5.221 1.333 10 1.333Z"/></svg>
