<svg width="24" height="24" class="icon-ui-caret-down-elevate" viewBox="0 0 24 24" xmlns="http://www.w3.org/2000/svg">
<path d="M12.7187 16.1955C12.7149 16.1994 12.711 16.2033 12.7072 16.2072C12.5119 16.4025 12.2559 16.5001 12 16.5001C11.744 16.5001 11.4881 16.4025 11.2928 16.2072C11.2889 16.2033 11.2851 16.1994 11.2813 16.1955L4.29289 9.20711C3.90237 8.81658 3.90237 8.18342 4.29289 7.79289C4.68342 7.40237 5.31658 7.40237 5.70711 7.79289L12 14.0858L18.2928 7.79289C18.6834 7.40237 19.3165 7.40237 19.707 7.79289C20.0976 8.18342 20.0976 8.81658 19.707 9.20711L12.7187 16.1955Z" fill="#404040">
</path>
</svg>
