<svg width="20" height="20" viewBox="0 0 20 20" fill="none" xmlns="http://www.w3.org/2000/svg">
<path d="M7.91666 7.81545C7.91666 7.30357 8.46965 6.98266 8.91409 7.23662L12.737 9.42117C13.1849 9.6771 13.1849 10.3229 12.737 10.5788L8.91409 12.7634C8.46965 13.0173 7.91666 12.6964 7.91666 12.1845V7.81545Z" fill="#0C0C0C"/>
<path fill-rule="evenodd" clip-rule="evenodd" d="M18.3333 10C18.3333 14.6024 14.6024 18.3333 10 18.3333C5.39762 18.3333 1.66666 14.6024 1.66666 10C1.66666 5.39762 5.39762 1.66666 10 1.66666C14.6024 1.66666 18.3333 5.39762 18.3333 10ZM16.6667 10C16.6667 13.6819 13.6819 16.6667 10 16.6667C6.3181 16.6667 3.33333 13.6819 3.33333 10C3.33333 6.3181 6.3181 3.33333 10 3.33333C13.6819 3.33333 16.6667 6.3181 16.6667 10Z" fill="#0C0C0C"/>
</svg>
