<svg xmlns="http://www.w3.org/2000/svg" width="48" height="48" viewBox="0 0 48 48" fill="none">
  <path d="M24.0098 13C29.5298 13 34.0098 17.48 34.0098 23C34.0098 24.3 33.7498 25.52 33.2898 26.66L39.1298 32.5C42.1498 29.98 44.5298 26.72 45.9898 23C42.5298 14.22 33.9898 8 23.9898 8C21.1898 8 18.5098 8.5 16.0298 9.4L20.3498 13.72C21.4898 13.26 22.7098 13 24.0098 13ZM4.00977 7.54L9.48976 13.02C6.16976 15.6 3.56977 19.04 2.00977 23C5.46977 31.78 14.0098 38 24.0098 38C27.1098 38 30.0698 37.4 32.7698 36.32L33.6098 37.16L39.4698 43L42.0098 40.46L6.54977 5L4.00977 7.54ZM15.0698 18.6L18.1698 21.7C18.0698 22.12 18.0098 22.56 18.0098 23C18.0098 26.32 20.6898 29 24.0098 29C24.4498 29 24.8898 28.94 25.3098 28.84L28.4098 31.94C27.0698 32.6 25.5898 33 24.0098 33C18.4898 33 14.0098 28.52 14.0098 23C14.0098 21.42 14.4098 19.94 15.0698 18.6ZM23.6898 17.04L29.9898 23.34L30.0298 23.02C30.0298 19.7 27.3498 17.02 24.0298 17.02L23.6898 17.04Z" fill="white"/>
</svg>
